{
  "accessors": [
    {
      "bufferView": 0,
      "componentType": 5125,
      "count": 29742,
      "type": "SCALAR"
    },
    {
      "bufferView": 1,
      "componentType": 5126,
      "count": 6533,
      "max": [
        -47.0796813964844,
        218.926330566406,
        556.474487304688
      ],
      "min": [
        -732.255981445312,
        35.1373443603516,
        121.858032226562
      ],
      "type": "VEC3"
    },
    {
      "bufferView": 2,
      "componentType": 5126,
      "count": 6533,
      "type": "VEC3"
    },
    {
      "bufferView": 3,
      "componentType": 5126,
      "count": 6533,
      "type": "VEC4"
    },
    {
      "bufferView": 4,
      "componentType": 5126,
      "count": 6533,
      "type": "VEC2"
    },
    {
      "bufferView": 5,
      "componentType": 5125,
      "count": 29742,
      "type": "SCALAR"
    },
    {
      "bufferView": 6,
      "componentType": 5126,
      "count": 6533,
      "max": [
        -47.0796813964844,
        218.926330566406,
        556.474487304688
      ],
      "min": [
        -732.255981445312,
        35.1373443603516,
        121.858032226562
      ],
      "type": "VEC3"
    },
    {
      "bufferView": 7,
      "componentType": 5126,
      "count": 6533,
      "type": "VEC3"
    },
    {
      "bufferView": 8,
      "componentType": 5126,
      "count": 6533,
      "type": "VEC4"
    },
    {
      "bufferView": 9,
      "componentType": 5126,
      "count": 6533,
      "type": "VEC2"
    }
  ],
  "asset": {
    "generator": "Adobe Substance 3D Painter 9.1.1",
    "version": "2.0"
  },
  "bufferViews": [
    {
      "buffer": 0,
      "byteLength": 118968,
      "target": 34963
    },
    {
      "buffer": 0,
      "byteLength": 78396,
      "byteOffset": 118968,
      "target": 34962
    },
    {
      "buffer": 0,
      "byteLength": 78396,
      "byteOffset": 197364,
      "target": 34962
    },
    {
      "buffer": 0,
      "byteLength": 104528,
      "byteOffset": 275760,
      "target": 34962
    },
    {
      "buffer": 0,
      "byteLength": 52264,
      "byteOffset": 380288,
      "target": 34962
    },
    {
      "buffer": 0,
      "byteLength": 118968,
      "byteOffset": 432552,
      "target": 34963
    },
    {
      "buffer": 0,
      "byteLength": 78396,
      "byteOffset": 551520,
      "target": 34962
    },
    {
      "buffer": 0,
      "byteLength": 78396,
      "byteOffset": 629916,
      "target": 34962
    },
    {
      "buffer": 0,
      "byteLength": 104528,
      "byteOffset": 708312,
      "target": 34962
    },
    {
      "buffer": 0,
      "byteLength": 52264,
      "byteOffset": 812840,
      "target": 34962
    }
  ],
  "buffers": [
    {
      "byteLength": 865104,
      "uri": "hubRoomRealFinal.bin"
    }
  ],
  "images": [
    {
      "uri": "HubRoom_baseColor.png"
    },
    {
      "uri": "HubRoom_occlusionRoughnessMetallic.png"
    },
    {
      "uri": "HubRoom_normal.png"
    }
  ],
  "materials": [
    {
      "alphaMode": "OPAQUE",
      "name": "HubRoom",
      "normalTexture": {
        "index": 2
      },
      "occlusionTexture": {
        "index": 1
      },
      "pbrMetallicRoughness": {
        "baseColorTexture": {
          "index": 0
        },
        "metallicRoughnessTexture": {
          "index": 1
        }
      }
    }
  ],
  "meshes": [
    {
      "name": "ingeniumLab",
      "primitives": [
        {
          "attributes": {
            "NORMAL": 2,
            "POSITION": 1,
            "TANGENT": 3,
            "TEXCOORD_0": 4
          },
          "indices": 0,
          "material": 0,
          "mode": 4
        }
      ]
    },
    {
      "name": "ingeniumLab1",
      "primitives": [
        {
          "attributes": {
            "NORMAL": 7,
            "POSITION": 6,
            "TANGENT": 8,
            "TEXCOORD_0": 9
          },
          "indices": 5,
          "material": 0,
          "mode": 4
        }
      ]
    }
  ],
  "nodes": [
    {
      "children": [
        1
      ],
      "name": "RootNode",
      "scale": [
        0.00999999977648258,
        0.00999999977648258,
        0.00999999977648258
      ]
    },
    {
      "children": [
        2,
        4
      ],
      "name": "ingeniumLabGrp"
    },
    {
      "children": [
        3
      ],
      "name": "ingeniumLab"
    },
    {
      "mesh": 0,
      "name": "ingeniumLab"
    },
    {
      "children": [
        5
      ],
      "name": "ingeniumLab1"
    },
    {
      "mesh": 1,
      "name": "ingeniumLab1"
    }
  ],
  "samplers": [
    {
      "magFilter": 9729,
      "minFilter": 9985,
      "wrapS": 10497,
      "wrapT": 10497
    }
  ],
  "scene": 0,
  "scenes": [
    {
      "name": "Scene",
      "nodes": [
        0
      ]
    }
  ],
  "textures": [
    {
      "sampler": 0,
      "source": 0
    },
    {
      "sampler": 0,
      "source": 1
    },
    {
      "sampler": 0,
      "source": 2
    }
  ]
}