{
  "accessors": [
    {
      "bufferView": 0,
      "componentType": 5125,
      "count": 324,
      "type": "SCALAR"
    },
    {
      "bufferView": 1,
      "componentType": 5126,
      "count": 96,
      "max": [
        -22.3875007629395,
        221.075592041016,
        -276.594696044922
      ],
      "min": [
        -37.2488479614258,
        36.8477783203125,
        -739.559692382812
      ],
      "type": "VEC3"
    },
    {
      "bufferView": 2,
      "componentType": 5126,
      "count": 96,
      "type": "VEC3"
    },
    {
      "bufferView": 3,
      "componentType": 5126,
      "count": 96,
      "type": "VEC4"
    },
    {
      "bufferView": 4,
      "componentType": 5126,
      "count": 96,
      "type": "VEC2"
    },
    {
      "bufferView": 5,
      "componentType": 5125,
      "count": 180,
      "type": "SCALAR"
    },
    {
      "bufferView": 6,
      "componentType": 5126,
      "count": 64,
      "max": [
        296.348937988281,
        220.813980102539,
        -723.926086425781
      ],
      "min": [
        -236.921310424805,
        36.5862121582031,
        -746.868225097656
      ],
      "type": "VEC3"
    },
    {
      "bufferView": 7,
      "componentType": 5126,
      "count": 64,
      "type": "VEC3"
    },
    {
      "bufferView": 8,
      "componentType": 5126,
      "count": 64,
      "type": "VEC4"
    },
    {
      "bufferView": 9,
      "componentType": 5126,
      "count": 64,
      "type": "VEC2"
    },
    {
      "bufferView": 10,
      "componentType": 5125,
      "count": 132,
      "type": "SCALAR"
    },
    {
      "bufferView": 11,
      "componentType": 5126,
      "count": 52,
      "max": [
        305.869445800781,
        220.624908447266,
        102.538482666016
      ],
      "min": [
        288.983764648438,
        36.3971252441406,
        -743.582275390625
      ],
      "type": "VEC3"
    },
    {
      "bufferView": 12,
      "componentType": 5126,
      "count": 52,
      "type": "VEC3"
    },
    {
      "bufferView": 13,
      "componentType": 5126,
      "count": 52,
      "type": "VEC4"
    },
    {
      "bufferView": 14,
      "componentType": 5126,
      "count": 52,
      "type": "VEC2"
    },
    {
      "bufferView": 15,
      "componentType": 5125,
      "count": 324,
      "type": "SCALAR"
    },
    {
      "bufferView": 16,
      "componentType": 5126,
      "count": 96,
      "max": [
        311.023864746094,
        40.7398910522461,
        122.163391113281
      ],
      "min": [
        -242.846481323242,
        36.7861099243164,
        -746.865356445312
      ],
      "type": "VEC3"
    },
    {
      "bufferView": 17,
      "componentType": 5126,
      "count": 96,
      "type": "VEC3"
    },
    {
      "bufferView": 18,
      "componentType": 5126,
      "count": 96,
      "type": "VEC4"
    },
    {
      "bufferView": 19,
      "componentType": 5126,
      "count": 96,
      "type": "VEC2"
    },
    {
      "bufferView": 20,
      "componentType": 5125,
      "count": 324,
      "type": "SCALAR"
    },
    {
      "bufferView": 21,
      "componentType": 5126,
      "count": 96,
      "max": [
        -223.01936340332,
        220.271469116211,
        141.300659179688
      ],
      "min": [
        -245.63493347168,
        36.0436782836914,
        -737.2216796875
      ],
      "type": "VEC3"
    },
    {
      "bufferView": 22,
      "componentType": 5126,
      "count": 96,
      "type": "VEC3"
    },
    {
      "bufferView": 23,
      "componentType": 5126,
      "count": 96,
      "type": "VEC4"
    },
    {
      "bufferView": 24,
      "componentType": 5126,
      "count": 96,
      "type": "VEC2"
    },
    {
      "bufferView": 25,
      "componentType": 5125,
      "count": 324,
      "type": "SCALAR"
    },
    {
      "bufferView": 26,
      "componentType": 5126,
      "count": 96,
      "max": [
        306.936401367188,
        220.814010620117,
        129.104919433594
      ],
      "min": [
        -119.75260925293,
        36.5862121582031,
        105.447601318359
      ],
      "type": "VEC3"
    },
    {
      "bufferView": 27,
      "componentType": 5126,
      "count": 96,
      "type": "VEC3"
    },
    {
      "bufferView": 28,
      "componentType": 5126,
      "count": 96,
      "type": "VEC4"
    },
    {
      "bufferView": 29,
      "componentType": 5126,
      "count": 96,
      "type": "VEC2"
    }
  ],
  "asset": {
    "generator": "Adobe Substance 3D Painter 9.1.1",
    "version": "2.0"
  },
  "bufferViews": [
    {
      "buffer": 0,
      "byteLength": 1296,
      "target": 34963
    },
    {
      "buffer": 0,
      "byteLength": 1152,
      "byteOffset": 1296,
      "target": 34962
    },
    {
      "buffer": 0,
      "byteLength": 1152,
      "byteOffset": 2448,
      "target": 34962
    },
    {
      "buffer": 0,
      "byteLength": 1536,
      "byteOffset": 3600,
      "target": 34962
    },
    {
      "buffer": 0,
      "byteLength": 768,
      "byteOffset": 5136,
      "target": 34962
    },
    {
      "buffer": 0,
      "byteLength": 720,
      "byteOffset": 5904,
      "target": 34963
    },
    {
      "buffer": 0,
      "byteLength": 768,
      "byteOffset": 6624,
      "target": 34962
    },
    {
      "buffer": 0,
      "byteLength": 768,
      "byteOffset": 7392,
      "target": 34962
    },
    {
      "buffer": 0,
      "byteLength": 1024,
      "byteOffset": 8160,
      "target": 34962
    },
    {
      "buffer": 0,
      "byteLength": 512,
      "byteOffset": 9184,
      "target": 34962
    },
    {
      "buffer": 0,
      "byteLength": 528,
      "byteOffset": 9696,
      "target": 34963
    },
    {
      "buffer": 0,
      "byteLength": 624,
      "byteOffset": 10224,
      "target": 34962
    },
    {
      "buffer": 0,
      "byteLength": 624,
      "byteOffset": 10848,
      "target": 34962
    },
    {
      "buffer": 0,
      "byteLength": 832,
      "byteOffset": 11472,
      "target": 34962
    },
    {
      "buffer": 0,
      "byteLength": 416,
      "byteOffset": 12304,
      "target": 34962
    },
    {
      "buffer": 0,
      "byteLength": 1296,
      "byteOffset": 12720,
      "target": 34963
    },
    {
      "buffer": 0,
      "byteLength": 1152,
      "byteOffset": 14016,
      "target": 34962
    },
    {
      "buffer": 0,
      "byteLength": 1152,
      "byteOffset": 15168,
      "target": 34962
    },
    {
      "buffer": 0,
      "byteLength": 1536,
      "byteOffset": 16320,
      "target": 34962
    },
    {
      "buffer": 0,
      "byteLength": 768,
      "byteOffset": 17856,
      "target": 34962
    },
    {
      "buffer": 0,
      "byteLength": 1296,
      "byteOffset": 18624,
      "target": 34963
    },
    {
      "buffer": 0,
      "byteLength": 1152,
      "byteOffset": 19920,
      "target": 34962
    },
    {
      "buffer": 0,
      "byteLength": 1152,
      "byteOffset": 21072,
      "target": 34962
    },
    {
      "buffer": 0,
      "byteLength": 1536,
      "byteOffset": 22224,
      "target": 34962
    },
    {
      "buffer": 0,
      "byteLength": 768,
      "byteOffset": 23760,
      "target": 34962
    },
    {
      "buffer": 0,
      "byteLength": 1296,
      "byteOffset": 24528,
      "target": 34963
    },
    {
      "buffer": 0,
      "byteLength": 1152,
      "byteOffset": 25824,
      "target": 34962
    },
    {
      "buffer": 0,
      "byteLength": 1152,
      "byteOffset": 26976,
      "target": 34962
    },
    {
      "buffer": 0,
      "byteLength": 1536,
      "byteOffset": 28128,
      "target": 34962
    },
    {
      "buffer": 0,
      "byteLength": 768,
      "byteOffset": 29664,
      "target": 34962
    }
  ],
  "buffers": [
    {
      "byteLength": 30432,
      "uri": "medLabTexture.bin"
    }
  ],
  "images": [
    {
      "uri": "medLab_baseColor.png"
    },
    {
      "uri": "medLab_occlusionRoughnessMetallic.png"
    },
    {
      "uri": "medLab_normal.png"
    }
  ],
  "materials": [
    {
      "alphaMode": "OPAQUE",
      "name": "medLab",
      "normalTexture": {
        "index": 2
      },
      "occlusionTexture": {
        "index": 1
      },
      "pbrMetallicRoughness": {
        "baseColorTexture": {
          "index": 0
        },
        "metallicRoughnessTexture": {
          "index": 1
        }
      }
    }
  ],
  "meshes": [
    {
      "name": "polySurface7",
      "primitives": [
        {
          "attributes": {
            "NORMAL": 2,
            "POSITION": 1,
            "TANGENT": 3,
            "TEXCOORD_0": 4
          },
          "indices": 0,
          "material": 0,
          "mode": 4
        }
      ]
    },
    {
      "name": "polySurface8",
      "primitives": [
        {
          "attributes": {
            "NORMAL": 7,
            "POSITION": 6,
            "TANGENT": 8,
            "TEXCOORD_0": 9
          },
          "indices": 5,
          "material": 0,
          "mode": 4
        }
      ]
    },
    {
      "name": "polySurface9",
      "primitives": [
        {
          "attributes": {
            "NORMAL": 12,
            "POSITION": 11,
            "TANGENT": 13,
            "TEXCOORD_0": 14
          },
          "indices": 10,
          "material": 0,
          "mode": 4
        }
      ]
    },
    {
      "name": "polySurface10",
      "primitives": [
        {
          "attributes": {
            "NORMAL": 17,
            "POSITION": 16,
            "TANGENT": 18,
            "TEXCOORD_0": 19
          },
          "indices": 15,
          "material": 0,
          "mode": 4
        }
      ]
    },
    {
      "name": "polySurface11",
      "primitives": [
        {
          "attributes": {
            "NORMAL": 22,
            "POSITION": 21,
            "TANGENT": 23,
            "TEXCOORD_0": 24
          },
          "indices": 20,
          "material": 0,
          "mode": 4
        }
      ]
    },
    {
      "name": "polySurface12",
      "primitives": [
        {
          "attributes": {
            "NORMAL": 27,
            "POSITION": 26,
            "TANGENT": 28,
            "TEXCOORD_0": 29
          },
          "indices": 25,
          "material": 0,
          "mode": 4
        }
      ]
    }
  ],
  "nodes": [
    {
      "children": [
        1,
        9
      ],
      "name": "RootNode",
      "scale": [
        0.00999999977648258,
        0.00999999977648258,
        0.00999999977648258
      ]
    },
    {
      "children": [
        2
      ],
      "name": "MedicalRoomLabGrp"
    },
    {
      "children": [
        3,
        4,
        5,
        6,
        7,
        8
      ],
      "name": "MedicalRoomLab",
      "scale": [
        1.3594069480896,
        1.3594069480896,
        1.3594069480896
      ],
      "translation": [
        46.6380081176758,
        -20.3585567474365,
        -41.9697494506836
      ]
    },
    {
      "name": "polySurface1",
      "rotation": [
        0.0,
        0.0055306670255959,
        0.0,
        0.999984681606293
      ],
      "scale": [
        1.0,
        1.0,
        2.50084471702576
      ],
      "translation": [
        0.0,
        0.0,
        -172.419799804688
      ]
    },
    {
      "name": "polySurface2",
      "scale": [
        1.0,
        1.0,
        2.58500957489014
      ],
      "translation": [
        0.0,
        0.0,
        -185.903518676758
      ]
    },
    {
      "name": "polySurface3",
      "scale": [
        1.0,
        1.0,
        1.79111099243164
      ],
      "translation": [
        0.0,
        0.0,
        -295.85888671875
      ]
    },
    {
      "name": "polySurface4",
      "scale": [
        1.0,
        1.0,
        2.61685156822205
      ],
      "translation": [
        -4.87645435333252,
        0.0,
        -205.688842773438
      ]
    },
    {
      "name": "polySurface5",
      "translation": [
        0.0,
        0.0,
        -390.039245605469
      ]
    },
    {
      "name": "polySurface6"
    },
    {
      "children": [
        10,
        12,
        14,
        16,
        18,
        20
      ],
      "name": "medLab"
    },
    {
      "children": [
        11
      ],
      "name": "polySurface7",
      "rotation": [
        0.0,
        -0.707583069801331,
        0.0,
        0.706630110740662
      ],
      "scale": [
        1.0,
        1.0,
        0.834186494350433
      ],
      "translation": [
        -468.264831542969,
        0.0,
        -247.853576660156
      ]
    },
    {
      "mesh": 0,
      "name": "polySurface7"
    },
    {
      "children": [
        13
      ],
      "name": "polySurface8"
    },
    {
      "mesh": 1,
      "name": "polySurface8"
    },
    {
      "children": [
        15
      ],
      "name": "polySurface9"
    },
    {
      "mesh": 2,
      "name": "polySurface9"
    },
    {
      "children": [
        17
      ],
      "name": "polySurface10"
    },
    {
      "mesh": 3,
      "name": "polySurface10"
    },
    {
      "children": [
        19
      ],
      "name": "polySurface11"
    },
    {
      "mesh": 4,
      "name": "polySurface11"
    },
    {
      "children": [
        21
      ],
      "name": "polySurface12",
      "translation": [
        0.0,
        0.0,
        -7.35982084274292
      ]
    },
    {
      "mesh": 5,
      "name": "polySurface12"
    }
  ],
  "samplers": [
    {
      "magFilter": 9729,
      "minFilter": 9985,
      "wrapS": 10497,
      "wrapT": 10497
    }
  ],
  "scene": 0,
  "scenes": [
    {
      "name": "Scene",
      "nodes": [
        0
      ]
    }
  ],
  "textures": [
    {
      "sampler": 0,
      "source": 0
    },
    {
      "sampler": 0,
      "source": 1
    },
    {
      "sampler": 0,
      "source": 2
    }
  ]
}