{
	"asset":{
		"generator":"Khronos glTF Blender I/O v3.6.28",
		"version":"2.0"
	},
	"scene":0,
	"scenes":[
		{
			"name":"Scene",
			"nodes":[
				0,
				1,
				2,
				3,
				4,
				5,
				20,
				23,
				40,
				42,
				43
			]
		}
	],
	"nodes":[
		{
			"name":"transform2"
		},
		{
			"name":"transform3"
		},
		{
			"name":"transform5"
		},
		{
			"name":"transform6"
		},
		{
			"name":"transform1"
		},
		{
			"name":"transform4"
		},
		{
			"name":"transform4.001",
			"rotation":[
				-0.7070062160491943,
				-0.009777422063052654,
				0.0015639136545360088,
				0.7071380615234375
			],
			"scale":[
				73.55770874023438,
				73.56149291992188,
				29.424104690551758
			],
			"translation":[
				-36.55417251586914,
				81.1331558227539,
				-14.976058006286621
			]
		},
		{
			"children":[
				6
			],
			"name":"polySurface1",
			"rotation":[
				0,
				0,
				-0.005530667956918478,
				0.9999848008155823
			],
			"scale":[
				1,
				2.500845193862915,
				1
			],
			"translation":[
				0,
				-172.41983032226562,
				0
			]
		},
		{
			"name":"transform5.001",
			"rotation":[
				-0.7071067094802856,
				0,
				0,
				0.7071068286895752
			],
			"scale":[
				73.56148529052734,
				73.56148529052734,
				28.45694923400879
			],
			"translation":[
				-34.307613372802734,
				83.85929870605469,
				-14.976058006286621
			]
		},
		{
			"children":[
				8
			],
			"name":"polySurface2",
			"scale":[
				1,
				2.585009813308716,
				1
			],
			"translation":[
				0,
				-185.90354919433594,
				0
			]
		},
		{
			"name":"transform7",
			"rotation":[
				-0.7071067094802856,
				0,
				0,
				0.7071068286895752
			],
			"scale":[
				73.56149291992188,
				73.56149291992188,
				41.0703125
			],
			"translation":[
				-34.307613372802734,
				182.4188690185547,
				-14.976058006286621
			]
		},
		{
			"children":[
				10
			],
			"name":"polySurface3",
			"scale":[
				1,
				1.7911111116409302,
				1
			],
			"translation":[
				0,
				-295.8589172363281,
				0
			]
		},
		{
			"name":"transform3.001",
			"rotation":[
				-0.7071067094802856,
				0,
				0,
				0.7071068286895752
			],
			"scale":[
				73.56148529052734,
				73.56148529052734,
				28.110685348510742
			],
			"translation":[
				-29.4311580657959,
				90.3996353149414,
				-14.976058006286621
			]
		},
		{
			"children":[
				12
			],
			"name":"polySurface4",
			"scale":[
				1,
				2.616851568222046,
				1
			],
			"translation":[
				-4.876453399658203,
				-205.68887329101562,
				0
			]
		},
		{
			"name":"transform6.001",
			"rotation":[
				-0.7071068286895752,
				0,
				0,
				0.7071068286895752
			],
			"scale":[
				73.56149291992188,
				73.56149291992188,
				73.56149291992188
			],
			"translation":[
				-34.307613372802734,
				420.9128112792969,
				-14.976059913635254
			]
		},
		{
			"children":[
				14
			],
			"name":"polySurface5",
			"translation":[
				0,
				-390.0392761230469,
				0
			]
		},
		{
			"name":"transform2.001",
			"rotation":[
				-0.7071068286895752,
				0,
				0,
				0.7071068286895752
			],
			"scale":[
				73.56149291992188,
				73.56149291992188,
				73.56149291992188
			],
			"translation":[
				-34.307613372802734,
				30.873573303222656,
				-14.976059913635254
			]
		},
		{
			"children":[
				16
			],
			"name":"polySurface6"
		},
		{
			"name":"transform1.001",
			"rotation":[
				-0.7071068286895752,
				0,
				0,
				0.7071068286895752
			],
			"scale":[
				73.56149291992188,
				73.56149291992188,
				73.56149291992188
			],
			"translation":[
				-34.307613372802734,
				30.873573303222656,
				-14.976059913635254
			]
		},
		{
			"children":[
				7,
				9,
				11,
				13,
				15,
				17,
				18
			],
			"name":"MedicalRoomLab",
			"scale":[
				1.3594069480895996,
				1.3594069480895996,
				1.3594069480895996
			],
			"translation":[
				46.638004302978516,
				-41.96974563598633,
				20.358556747436523
			]
		},
		{
			"children":[
				19
			],
			"name":"MedicalRoomLabGrp",
			"rotation":[
				0.7071068286895752,
				0,
				0,
				0.7071068286895752
			],
			"scale":[
				0.009999999776482582,
				0.009999999776482582,
				0.009999999776482582
			]
		},
		{
			"name":"transform10",
			"rotation":[
				-0.7071068286895752,
				0,
				0,
				0.7071068286895752
			],
			"scale":[
				100,
				100,
				100
			]
		},
		{
			"children":[
				21
			],
			"name":"ingeniumLab"
		},
		{
			"children":[
				22
			],
			"name":"ingeniumLabGrp",
			"rotation":[
				0.7071068286895752,
				0,
				0,
				0.7071068286895752
			],
			"scale":[
				0.009999999776482582,
				0.009999999776482582,
				0.009999999776482582
			]
		},
		{
			"name":"transform14",
			"rotation":[
				-0.7071068286895752,
				0,
				0,
				0.7071068286895752
			],
			"scale":[
				100,
				100,
				100
			]
		},
		{
			"children":[
				24
			],
			"name":"pCube1"
		},
		{
			"name":"transform9",
			"rotation":[
				-0.7071068286895752,
				0,
				0,
				0.7071068286895752
			],
			"scale":[
				100,
				100,
				100
			]
		},
		{
			"children":[
				26
			],
			"name":"pCube10"
		},
		{
			"name":"transform16",
			"rotation":[
				-0.7071068286895752,
				0,
				0,
				0.7071068286895752
			],
			"scale":[
				100,
				100,
				100
			]
		},
		{
			"children":[
				28
			],
			"name":"pCube3"
		},
		{
			"name":"transform13",
			"rotation":[
				-0.7071068286895752,
				0,
				0,
				0.7071068286895752
			],
			"scale":[
				100,
				100,
				100
			]
		},
		{
			"children":[
				30
			],
			"name":"pCube4"
		},
		{
			"name":"transform15",
			"rotation":[
				-0.7071068286895752,
				0,
				0,
				0.7071068286895752
			],
			"scale":[
				100,
				100,
				100
			]
		},
		{
			"children":[
				32
			],
			"name":"pCube5"
		},
		{
			"name":"transform12",
			"rotation":[
				-0.7071068286895752,
				0,
				0,
				0.7071068286895752
			],
			"scale":[
				100,
				100,
				100
			]
		},
		{
			"children":[
				34
			],
			"name":"pCube6"
		},
		{
			"name":"transform8",
			"rotation":[
				-0.7071068286895752,
				0,
				0,
				0.7071068286895752
			],
			"scale":[
				100,
				100,
				100
			]
		},
		{
			"children":[
				36
			],
			"name":"pCube7"
		},
		{
			"name":"transform11",
			"rotation":[
				-0.7071068286895752,
				0,
				0,
				0.7071068286895752
			],
			"scale":[
				100,
				100,
				100
			]
		},
		{
			"children":[
				38
			],
			"name":"pCube8"
		},
		{
			"children":[
				25,
				27,
				29,
				31,
				33,
				35,
				37,
				39
			],
			"name":"doors",
			"rotation":[
				0.7071068286895752,
				0,
				0,
				0.7071068286895752
			],
			"scale":[
				0.009999999776482582,
				0.009999999776482582,
				0.009999999776482582
			]
		},
		{
			"name":"transform17",
			"rotation":[
				-0.7071068286895752,
				0,
				0,
				0.7071068286895752
			],
			"scale":[
				100,
				100,
				100
			]
		},
		{
			"children":[
				41
			],
			"name":"medLab",
			"rotation":[
				0.7071068286895752,
				0,
				0,
				0.7071068286895752
			],
			"scale":[
				0.009999999776482582,
				0.009999999776482582,
				0.009999999776482582
			]
		},
		{
			"mesh":0,
			"name":"medLab1",
			"rotation":[
				0.7071068286895752,
				0,
				0,
				0.7071068286895752
			],
			"scale":[
				0.009999999776482582,
				0.009999999776482582,
				0.009999999776482582
			]
		}
	],
	"materials":[
		{
			"doubleSided":true,
			"name":"standardSurface1.001",
			"pbrMetallicRoughness":{
				"metallicFactor":0,
				"roughnessFactor":0.5527864098548889
			}
		}
	],
	"meshes":[
		{
			"name":"Mesh.001",
			"primitives":[
				{
					"attributes":{
						"POSITION":0,
						"NORMAL":1,
						"TEXCOORD_0":2
					},
					"indices":3,
					"material":0
				}
			]
		}
	],
	"accessors":[
		{
			"bufferView":0,
			"componentType":5126,
			"count":18451,
			"max":[
				311.02386474609375,
				556.4744873046875,
				-35.137351989746094
			],
			"min":[
				-732.2559814453125,
				-746.8682250976562,
				-222.77255249023438
			],
			"type":"VEC3"
		},
		{
			"bufferView":1,
			"componentType":5126,
			"count":18451,
			"type":"VEC3"
		},
		{
			"bufferView":2,
			"componentType":5126,
			"count":18451,
			"type":"VEC2"
		},
		{
			"bufferView":3,
			"componentType":5123,
			"count":31527,
			"type":"SCALAR"
		}
	],
	"bufferViews":[
		{
			"buffer":0,
			"byteLength":221412,
			"byteOffset":0,
			"target":34962
		},
		{
			"buffer":0,
			"byteLength":221412,
			"byteOffset":221412,
			"target":34962
		},
		{
			"buffer":0,
			"byteLength":147608,
			"byteOffset":442824,
			"target":34962
		},
		{
			"buffer":0,
			"byteLength":63054,
			"byteOffset":590432,
			"target":34963
		}
	],
	"buffers":[
		{
			"byteLength":653488,
			"uri":"data:application/octet-stream;base64,"
		}
	]
}
