{
  "accessors": [
    {
      "bufferView": 0,
      "componentType": 5125,
      "count": 432,
      "type": "SCALAR"
    },
    {
      "bufferView": 1,
      "componentType": 5126,
      "count": 178,
      "max": [
        1.0,
        1.99686670303345,
        0.999999940395355
      ],
      "min": [
        -0.99999988079071,
        -0.00313329696655273,
        -0.99999988079071
      ],
      "type": "VEC3"
    },
    {
      "bufferView": 2,
      "componentType": 5126,
      "count": 178,
      "type": "VEC3"
    },
    {
      "bufferView": 3,
      "componentType": 5126,
      "count": 178,
      "type": "VEC4"
    },
    {
      "bufferView": 4,
      "componentType": 5126,
      "count": 178,
      "type": "VEC2"
    }
  ],
  "asset": {
    "generator": "Adobe Substance 3D Painter 9.1.1",
    "version": "2.0"
  },
  "bufferViews": [
    {
      "buffer": 0,
      "byteLength": 1728,
      "target": 34963
    },
    {
      "buffer": 0,
      "byteLength": 2136,
      "byteOffset": 1728,
      "target": 34962
    },
    {
      "buffer": 0,
      "byteLength": 2136,
      "byteOffset": 3864,
      "target": 34962
    },
    {
      "buffer": 0,
      "byteLength": 2848,
      "byteOffset": 6000,
      "target": 34962
    },
    {
      "buffer": 0,
      "byteLength": 1424,
      "byteOffset": 8848,
      "target": 34962
    }
  ],
  "buffers": [
    {
      "byteLength": 10272,
      "uri": "flask1.bin"
    }
  ],
  "images": [
    {
      "uri": "flask1_baseColor.png"
    },
    {
      "uri": "flask1_occlusionRoughnessMetallic.png"
    },
    {
      "uri": "flask1_normal.png"
    }
  ],
  "materials": [
    {
      "alphaMode": "BLEND",
      "name": "flask1",
      "normalTexture": {
        "index": 2
      },
      "occlusionTexture": {
        "index": 1
      },
      "pbrMetallicRoughness": {
        "baseColorTexture": {
          "index": 0
        },
        "metallicRoughnessTexture": {
          "index": 1
        }
      }
    }
  ],
  "meshes": [
    {
      "name": "pCylinder1",
      "primitives": [
        {
          "attributes": {
            "NORMAL": 2,
            "POSITION": 1,
            "TANGENT": 3,
            "TEXCOORD_0": 4
          },
          "indices": 0,
          "material": 0,
          "mode": 4
        }
      ]
    }
  ],
  "nodes": [
    {
      "children": [
        1
      ],
      "name": "RootNode",
      "scale": [
        0.00999999977648258,
        0.00999999977648258,
        0.00999999977648258
      ]
    },
    {
      "children": [
        2
      ],
      "name": "pCylinder1"
    },
    {
      "mesh": 0,
      "name": "pCylinder1"
    }
  ],
  "samplers": [
    {
      "magFilter": 9729,
      "minFilter": 9985,
      "wrapS": 10497,
      "wrapT": 10497
    }
  ],
  "scene": 0,
  "scenes": [
    {
      "name": "Scene",
      "nodes": [
        0
      ]
    }
  ],
  "textures": [
    {
      "sampler": 0,
      "source": 0
    },
    {
      "sampler": 0,
      "source": 1
    },
    {
      "sampler": 0,
      "source": 2
    }
  ]
}