{
  "accessors": [
    {
      "bufferView": 0,
      "componentType": 5125,
      "count": 432,
      "type": "SCALAR"
    },
    {
      "bufferView": 1,
      "componentType": 5126,
      "count": 183,
      "max": [
        0.268273115158081,
        3.46172332763672,
        0.268273055553436
      ],
      "min": [
        -0.268273055553436,
        0.0225481986999512,
        -0.268273055553436
      ],
      "type": "VEC3"
    },
    {
      "bufferView": 2,
      "componentType": 5126,
      "count": 183,
      "type": "VEC3"
    },
    {
      "bufferView": 3,
      "componentType": 5126,
      "count": 183,
      "type": "VEC4"
    },
    {
      "bufferView": 4,
      "componentType": 5126,
      "count": 183,
      "type": "VEC2"
    }
  ],
  "asset": {
    "generator": "Adobe Substance 3D Painter 9.1.2",
    "version": "2.0"
  },
  "bufferViews": [
    {
      "buffer": 0,
      "byteLength": 1728,
      "target": 34963
    },
    {
      "buffer": 0,
      "byteLength": 2196,
      "byteOffset": 1728,
      "target": 34962
    },
    {
      "buffer": 0,
      "byteLength": 2196,
      "byteOffset": 3924,
      "target": 34962
    },
    {
      "buffer": 0,
      "byteLength": 2928,
      "byteOffset": 6120,
      "target": 34962
    },
    {
      "buffer": 0,
      "byteLength": 1464,
      "byteOffset": 9048,
      "target": 34962
    }
  ],
  "buffers": [
    {
      "byteLength": 10512,
      "uri": "flask2.bin"
    }
  ],
  "images": [
    {
      "uri": "flask2_baseColor.png"
    },
    {
      "uri": "flask2_occlusionRoughnessMetallic.png"
    },
    {
      "uri": "flask2_normal.png"
    }
  ],
  "materials": [
    {
      "alphaMode": "BLEND",
      "name": "flask2",
      "normalTexture": {
        "index": 2
      },
      "occlusionTexture": {
        "index": 1
      },
      "pbrMetallicRoughness": {
        "baseColorTexture": {
          "index": 0
        },
        "metallicRoughnessTexture": {
          "index": 1
        }
      }
    }
  ],
  "meshes": [
    {
      "name": "pCylinder1",
      "primitives": [
        {
          "attributes": {
            "NORMAL": 2,
            "POSITION": 1,
            "TANGENT": 3,
            "TEXCOORD_0": 4
          },
          "indices": 0,
          "material": 0,
          "mode": 4
        }
      ]
    }
  ],
  "nodes": [
    {
      "children": [
        1
      ],
      "name": "RootNode",
      "scale": [
        0.00999999977648258,
        0.00999999977648258,
        0.00999999977648258
      ]
    },
    {
      "children": [
        2
      ],
      "name": "pCylinder1"
    },
    {
      "mesh": 0,
      "name": "pCylinder1"
    }
  ],
  "samplers": [
    {
      "magFilter": 9729,
      "minFilter": 9985,
      "wrapS": 10497,
      "wrapT": 10497
    }
  ],
  "scene": 0,
  "scenes": [
    {
      "name": "Scene",
      "nodes": [
        0
      ]
    }
  ],
  "textures": [
    {
      "sampler": 0,
      "source": 0
    },
    {
      "sampler": 0,
      "source": 1
    },
    {
      "sampler": 0,
      "source": 2
    }
  ]
}