{
  "accessors": [
    {
      "bufferView": 0,
      "componentType": 5125,
      "count": 324,
      "type": "SCALAR"
    },
    {
      "bufferView": 1,
      "componentType": 5126,
      "count": 96,
      "max": [
        0.499992370605469,
        0.49999988079071,
        0.500000059604645
      ],
      "min": [
        -0.500007629394531,
        -0.49999988079071,
        -0.500000059604645
      ],
      "type": "VEC3"
    },
    {
      "bufferView": 2,
      "componentType": 5126,
      "count": 96,
      "type": "VEC3"
    },
    {
      "bufferView": 3,
      "componentType": 5126,
      "count": 96,
      "type": "VEC4"
    },
    {
      "bufferView": 4,
      "componentType": 5126,
      "count": 96,
      "type": "VEC2"
    },
    {
      "bufferView": 5,
      "componentType": 5125,
      "count": 324,
      "type": "SCALAR"
    },
    {
      "bufferView": 6,
      "componentType": 5126,
      "count": 96,
      "max": [
        0.500007629394531,
        0.49999988079071,
        0.500000059604645
      ],
      "min": [
        -0.5,
        -0.49999988079071,
        -0.500000059604645
      ],
      "type": "VEC3"
    },
    {
      "bufferView": 7,
      "componentType": 5126,
      "count": 96,
      "type": "VEC3"
    },
    {
      "bufferView": 8,
      "componentType": 5126,
      "count": 96,
      "type": "VEC4"
    },
    {
      "bufferView": 9,
      "componentType": 5126,
      "count": 96,
      "type": "VEC2"
    },
    {
      "bufferView": 10,
      "componentType": 5125,
      "count": 324,
      "type": "SCALAR"
    },
    {
      "bufferView": 11,
      "componentType": 5126,
      "count": 96,
      "max": [
        0.500007629394531,
        0.49999988079071,
        0.5
      ],
      "min": [
        -0.5,
        -0.49999988079071,
        -0.499999970197678
      ],
      "type": "VEC3"
    },
    {
      "bufferView": 12,
      "componentType": 5126,
      "count": 96,
      "type": "VEC3"
    },
    {
      "bufferView": 13,
      "componentType": 5126,
      "count": 96,
      "type": "VEC4"
    },
    {
      "bufferView": 14,
      "componentType": 5126,
      "count": 96,
      "type": "VEC2"
    },
    {
      "bufferView": 15,
      "componentType": 5125,
      "count": 324,
      "type": "SCALAR"
    },
    {
      "bufferView": 16,
      "componentType": 5126,
      "count": 96,
      "max": [
        0.5,
        0.499999940395355,
        0.50000011920929
      ],
      "min": [
        -0.500001430511475,
        -0.499999940395355,
        -0.5
      ],
      "type": "VEC3"
    },
    {
      "bufferView": 17,
      "componentType": 5126,
      "count": 96,
      "type": "VEC3"
    },
    {
      "bufferView": 18,
      "componentType": 5126,
      "count": 96,
      "type": "VEC4"
    },
    {
      "bufferView": 19,
      "componentType": 5126,
      "count": 96,
      "type": "VEC2"
    },
    {
      "bufferView": 20,
      "componentType": 5125,
      "count": 324,
      "type": "SCALAR"
    },
    {
      "bufferView": 21,
      "componentType": 5126,
      "count": 96,
      "max": [
        0.499999046325684,
        0.499999940395355,
        0.50000011920929
      ],
      "min": [
        -0.500002861022949,
        -0.499999940395355,
        -0.5
      ],
      "type": "VEC3"
    },
    {
      "bufferView": 22,
      "componentType": 5126,
      "count": 96,
      "type": "VEC3"
    },
    {
      "bufferView": 23,
      "componentType": 5126,
      "count": 96,
      "type": "VEC4"
    },
    {
      "bufferView": 24,
      "componentType": 5126,
      "count": 96,
      "type": "VEC2"
    },
    {
      "bufferView": 25,
      "componentType": 5125,
      "count": 324,
      "type": "SCALAR"
    },
    {
      "bufferView": 26,
      "componentType": 5126,
      "count": 96,
      "max": [
        0.5,
        0.49999988079071,
        0.5
      ],
      "min": [
        -0.500007629394531,
        -0.49999988079071,
        -0.500000059604645
      ],
      "type": "VEC3"
    },
    {
      "bufferView": 27,
      "componentType": 5126,
      "count": 96,
      "type": "VEC3"
    },
    {
      "bufferView": 28,
      "componentType": 5126,
      "count": 96,
      "type": "VEC4"
    },
    {
      "bufferView": 29,
      "componentType": 5126,
      "count": 96,
      "type": "VEC2"
    },
    {
      "bufferView": 30,
      "componentType": 5125,
      "count": 324,
      "type": "SCALAR"
    },
    {
      "bufferView": 31,
      "componentType": 5126,
      "count": 96,
      "max": [
        0.5,
        0.499999850988388,
        0.500000715255737
      ],
      "min": [
        -0.5,
        -0.499999850988388,
        -0.500000715255737
      ],
      "type": "VEC3"
    },
    {
      "bufferView": 32,
      "componentType": 5126,
      "count": 96,
      "type": "VEC3"
    },
    {
      "bufferView": 33,
      "componentType": 5126,
      "count": 96,
      "type": "VEC4"
    },
    {
      "bufferView": 34,
      "componentType": 5126,
      "count": 96,
      "type": "VEC2"
    }
  ],
  "asset": {
    "generator": "Adobe Substance 3D Painter 9.1.1",
    "version": "2.0"
  },
  "bufferViews": [
    {
      "buffer": 0,
      "byteLength": 1296,
      "target": 34963
    },
    {
      "buffer": 0,
      "byteLength": 1152,
      "byteOffset": 1296,
      "target": 34962
    },
    {
      "buffer": 0,
      "byteLength": 1152,
      "byteOffset": 2448,
      "target": 34962
    },
    {
      "buffer": 0,
      "byteLength": 1536,
      "byteOffset": 3600,
      "target": 34962
    },
    {
      "buffer": 0,
      "byteLength": 768,
      "byteOffset": 5136,
      "target": 34962
    },
    {
      "buffer": 0,
      "byteLength": 1296,
      "byteOffset": 5904,
      "target": 34963
    },
    {
      "buffer": 0,
      "byteLength": 1152,
      "byteOffset": 7200,
      "target": 34962
    },
    {
      "buffer": 0,
      "byteLength": 1152,
      "byteOffset": 8352,
      "target": 34962
    },
    {
      "buffer": 0,
      "byteLength": 1536,
      "byteOffset": 9504,
      "target": 34962
    },
    {
      "buffer": 0,
      "byteLength": 768,
      "byteOffset": 11040,
      "target": 34962
    },
    {
      "buffer": 0,
      "byteLength": 1296,
      "byteOffset": 11808,
      "target": 34963
    },
    {
      "buffer": 0,
      "byteLength": 1152,
      "byteOffset": 13104,
      "target": 34962
    },
    {
      "buffer": 0,
      "byteLength": 1152,
      "byteOffset": 14256,
      "target": 34962
    },
    {
      "buffer": 0,
      "byteLength": 1536,
      "byteOffset": 15408,
      "target": 34962
    },
    {
      "buffer": 0,
      "byteLength": 768,
      "byteOffset": 16944,
      "target": 34962
    },
    {
      "buffer": 0,
      "byteLength": 1296,
      "byteOffset": 17712,
      "target": 34963
    },
    {
      "buffer": 0,
      "byteLength": 1152,
      "byteOffset": 19008,
      "target": 34962
    },
    {
      "buffer": 0,
      "byteLength": 1152,
      "byteOffset": 20160,
      "target": 34962
    },
    {
      "buffer": 0,
      "byteLength": 1536,
      "byteOffset": 21312,
      "target": 34962
    },
    {
      "buffer": 0,
      "byteLength": 768,
      "byteOffset": 22848,
      "target": 34962
    },
    {
      "buffer": 0,
      "byteLength": 1296,
      "byteOffset": 23616,
      "target": 34963
    },
    {
      "buffer": 0,
      "byteLength": 1152,
      "byteOffset": 24912,
      "target": 34962
    },
    {
      "buffer": 0,
      "byteLength": 1152,
      "byteOffset": 26064,
      "target": 34962
    },
    {
      "buffer": 0,
      "byteLength": 1536,
      "byteOffset": 27216,
      "target": 34962
    },
    {
      "buffer": 0,
      "byteLength": 768,
      "byteOffset": 28752,
      "target": 34962
    },
    {
      "buffer": 0,
      "byteLength": 1296,
      "byteOffset": 29520,
      "target": 34963
    },
    {
      "buffer": 0,
      "byteLength": 1152,
      "byteOffset": 30816,
      "target": 34962
    },
    {
      "buffer": 0,
      "byteLength": 1152,
      "byteOffset": 31968,
      "target": 34962
    },
    {
      "buffer": 0,
      "byteLength": 1536,
      "byteOffset": 33120,
      "target": 34962
    },
    {
      "buffer": 0,
      "byteLength": 768,
      "byteOffset": 34656,
      "target": 34962
    },
    {
      "buffer": 0,
      "byteLength": 1296,
      "byteOffset": 35424,
      "target": 34963
    },
    {
      "buffer": 0,
      "byteLength": 1152,
      "byteOffset": 36720,
      "target": 34962
    },
    {
      "buffer": 0,
      "byteLength": 1152,
      "byteOffset": 37872,
      "target": 34962
    },
    {
      "buffer": 0,
      "byteLength": 1536,
      "byteOffset": 39024,
      "target": 34962
    },
    {
      "buffer": 0,
      "byteLength": 768,
      "byteOffset": 40560,
      "target": 34962
    }
  ],
  "buffers": [
    {
      "byteLength": 41328,
      "uri": "ASM - PBR Metallic Roughness.bin"
    }
  ],
  "images": [
    {
      "uri": "medlabBaseboards_baseColor.png"
    },
    {
      "uri": "medlabBaseboards_occlusionRoughnessMetallic.png"
    },
    {
      "uri": "medlabBaseboards_normal.png"
    }
  ],
  "materials": [
    {
      "alphaMode": "OPAQUE",
      "name": "medlabBaseboards",
      "normalTexture": {
        "index": 2
      },
      "occlusionTexture": {
        "index": 1
      },
      "pbrMetallicRoughness": {
        "baseColorTexture": {
          "index": 0
        },
        "metallicRoughnessTexture": {
          "index": 1
        }
      }
    }
  ],
  "meshes": [
    {
      "name": "pCube1",
      "primitives": [
        {
          "attributes": {
            "NORMAL": 2,
            "POSITION": 1,
            "TANGENT": 3,
            "TEXCOORD_0": 4
          },
          "indices": 0,
          "material": 0,
          "mode": 4
        }
      ]
    },
    {
      "name": "pCube2",
      "primitives": [
        {
          "attributes": {
            "NORMAL": 7,
            "POSITION": 6,
            "TANGENT": 8,
            "TEXCOORD_0": 9
          },
          "indices": 5,
          "material": 0,
          "mode": 4
        }
      ]
    },
    {
      "name": "pCube3",
      "primitives": [
        {
          "attributes": {
            "NORMAL": 12,
            "POSITION": 11,
            "TANGENT": 13,
            "TEXCOORD_0": 14
          },
          "indices": 10,
          "material": 0,
          "mode": 4
        }
      ]
    },
    {
      "name": "pCube4",
      "primitives": [
        {
          "attributes": {
            "NORMAL": 17,
            "POSITION": 16,
            "TANGENT": 18,
            "TEXCOORD_0": 19
          },
          "indices": 15,
          "material": 0,
          "mode": 4
        }
      ]
    },
    {
      "name": "pCube5",
      "primitives": [
        {
          "attributes": {
            "NORMAL": 22,
            "POSITION": 21,
            "TANGENT": 23,
            "TEXCOORD_0": 24
          },
          "indices": 20,
          "material": 0,
          "mode": 4
        }
      ]
    },
    {
      "name": "pCube6",
      "primitives": [
        {
          "attributes": {
            "NORMAL": 27,
            "POSITION": 26,
            "TANGENT": 28,
            "TEXCOORD_0": 29
          },
          "indices": 25,
          "material": 0,
          "mode": 4
        }
      ]
    },
    {
      "name": "pCube7",
      "primitives": [
        {
          "attributes": {
            "NORMAL": 32,
            "POSITION": 31,
            "TANGENT": 33,
            "TEXCOORD_0": 34
          },
          "indices": 30,
          "material": 0,
          "mode": 4
        }
      ]
    }
  ],
  "nodes": [
    {
      "children": [
        1
      ],
      "name": "RootNode",
      "scale": [
        0.00999999977648258,
        0.00999999977648258,
        0.00999999977648258
      ]
    },
    {
      "children": [
        2,
        4,
        6,
        8,
        10,
        12,
        14
      ],
      "name": "baseboards"
    },
    {
      "children": [
        3
      ],
      "name": "pCube1",
      "rotation": [
        0.0,
        0.00803921837359667,
        0.0,
        0.999967694282532
      ],
      "scale": [
        6.13178825378418,
        11.2326612472534,
        948.449890136719
      ],
      "translation": [
        -229.810638427734,
        46.6818237304688,
        -330.779846191406
      ]
    },
    {
      "mesh": 0,
      "name": "pCube1"
    },
    {
      "children": [
        5
      ],
      "name": "pCube2",
      "rotation": [
        0.0,
        0.00803921837359667,
        0.0,
        0.999967694282532
      ],
      "scale": [
        6.13178825378418,
        11.2326612472534,
        948.449890136719
      ],
      "translation": [
        292.8857421875,
        46.6818237304688,
        -330.779846191406
      ]
    },
    {
      "mesh": 1,
      "name": "pCube2"
    },
    {
      "children": [
        7
      ],
      "name": "pCube3",
      "rotation": [
        0.0,
        -0.696856200695038,
        0.0,
        0.71721088886261
      ],
      "scale": [
        6.13178873062134,
        11.2326612472534,
        521.973754882812
      ],
      "translation": [
        28.2499446868896,
        46.6818237304688,
        -728.550354003906
      ]
    },
    {
      "mesh": 2,
      "name": "pCube3"
    },
    {
      "children": [
        9
      ],
      "name": "pCube4",
      "rotation": [
        0.0,
        -0.696856200695038,
        0.0,
        0.71721088886261
      ],
      "scale": [
        6.13178873062134,
        11.2326612472534,
        378.437438964844
      ],
      "translation": [
        -42.2640075683594,
        46.6818237304688,
        -282.82568359375
      ]
    },
    {
      "mesh": 3,
      "name": "pCube4"
    },
    {
      "children": [
        11
      ],
      "name": "pCube5",
      "rotation": [
        0.0,
        -0.696856200695038,
        0.0,
        0.71721088886261
      ],
      "scale": [
        6.13178873062134,
        11.2326612472534,
        378.437438964844
      ],
      "translation": [
        -42.2640075683594,
        46.6818237304688,
        -271.327087402344
      ]
    },
    {
      "mesh": 4,
      "name": "pCube5"
    },
    {
      "children": [
        13
      ],
      "name": "pCube6",
      "rotation": [
        0.0,
        -0.696856200695038,
        0.0,
        0.71721088886261
      ],
      "scale": [
        6.13178873062134,
        11.2326612472534,
        444.736785888672
      ],
      "translation": [
        100.189407348633,
        46.6818237304688,
        102.221687316895
      ]
    },
    {
      "mesh": 5,
      "name": "pCube6"
    },
    {
      "children": [
        15
      ],
      "name": "pCube7",
      "rotation": [
        0.0,
        0.00803921837359667,
        0.0,
        0.999967694282532
      ],
      "scale": [
        6.13178825378418,
        11.2326612472534,
        17.7430973052979
      ],
      "translation": [
        148.342025756836,
        46.6818237304688,
        -282.562469482422
      ]
    },
    {
      "mesh": 6,
      "name": "pCube7"
    }
  ],
  "samplers": [
    {
      "magFilter": 9729,
      "minFilter": 9985,
      "wrapS": 10497,
      "wrapT": 10497
    }
  ],
  "scene": 0,
  "scenes": [
    {
      "name": "Scene",
      "nodes": [
        0
      ]
    }
  ],
  "textures": [
    {
      "sampler": 0,
      "source": 0
    },
    {
      "sampler": 0,
      "source": 1
    },
    {
      "sampler": 0,
      "source": 2
    }
  ]
}